<mxfile host="app.diagrams.net" modified="2024-04-19T08:18:20.290Z" agent="Mozilla/5.0 (Macintosh; Intel Mac OS X 10_15_7) AppleWebKit/537.36 (KHTML, like Gecko) Chrome/119.0.0.0 Safari/537.36" version="24.2.5" etag="XsJYYwU6fkusSVdC46vh" type="github">
  <diagram name="Page-1" id="1idTqTSdg8dcOFJDA2XS">
    <mxGraphModel>
      <root>
        <mxCell id="0" />
        <mxCell id="1" parent="0" />
      </root>
    </mxGraphModel>
  </diagram>
</mxfile>
